<?xml version="1.0" encoding="utf-8"?>
<!-- Generator: Adobe Illustrator 23.0.2, SVG Export Plug-In . SVG Version: 6.00 Build 0)  -->
<svg version="1.1" id="Layer_1" xmlns="http://www.w3.org/2000/svg" xmlns:xlink="http://www.w3.org/1999/xlink" x="0px" y="0px"
	 viewBox="0 0 16 16" style="enable-background:new 0 0 16 16;" xml:space="preserve">
<style type="text/css">
	.st0{fill:url(#SVGID_1_);}
	.st1{fill:#1C3C73;}
</style>
<title>JadeQuest favicon</title>
<linearGradient id="SVGID_1_" gradientUnits="userSpaceOnUse" x1="0.19" y1="17.81" x2="10.0895" y2="7.9105" gradientTransform="matrix(1 0 0 -1 0 18)">
	<stop  offset="0.33" style="stop-color:#24B476"/>
	<stop  offset="1" style="stop-color:#1C3C73"/>
</linearGradient>
<path class="st0" d="M7.5,0.5c-3.87,0-7,3.13-7,7s3.13,7,7,7s7-3.13,7-7S11.37,0.5,7.5,0.5z M7.5,12c-2.46-0.02-4.44-2.04-4.42-4.5
	c0.02-2.46,2.04-4.44,4.5-4.42C10.01,3.1,11.98,5.07,12,7.5c0.02,2.46-1.96,4.48-4.42,4.5C7.55,12,7.53,12,7.5,12z"/>
<circle class="st1" cx="13.91" cy="13.91" r="1.59"/>
</svg>
