<?xml version="1.0" encoding="utf-8"?>
<!-- Generator: Adobe Illustrator 23.0.2, SVG Export Plug-In . SVG Version: 6.00 Build 0)  -->
<svg version="1.1" id="Layer_1" xmlns="http://www.w3.org/2000/svg" xmlns:xlink="http://www.w3.org/1999/xlink" x="0px" y="0px"
	 viewBox="0 0 722.83 155.91" style="enable-background:new 0 0 722.83 155.91;" xml:space="preserve">
<style type="text/css">
	.st0{fill:url(#SVGID_1_);}
	.st1{fill:#1B3C73;}
	.st2{fill:#23B576;}
</style>
<g>
	<linearGradient id="SVGID_1_" gradientUnits="userSpaceOnUse" x1="310.7006" y1="4.6887" x2="403.5213" y2="97.5094">
		<stop  offset="0.3293" style="stop-color:#23B576"/>
		<stop  offset="1" style="stop-color:#1B3C73"/>
	</linearGradient>
	<path class="st0" d="M379.28,7.63c-36.25,0-65.63,29.39-65.63,65.63s29.39,65.63,65.63,65.63c36.25,0,65.63-29.39,65.63-65.63
		S415.53,7.63,379.28,7.63z M379.28,115.1c-23.1,0-41.83-18.73-41.83-41.83s18.73-41.83,41.83-41.83c23.1,0,41.83,18.73,41.83,41.83
		S402.38,115.1,379.28,115.1z"/>
	<circle class="st1" cx="439.37" cy="133.36" r="14.92"/>
	<g>
		<path class="st1" d="M478.87,110.92c-7.37,0-13.16-2.38-17.38-7.14c-4.22-4.76-6.33-11.45-6.33-20.08V37.35h17.25v42.04
			c0,6.11,1.01,10.56,3.03,13.34c2.02,2.79,5.1,4.18,9.23,4.18c4.58,0,8.17-1.55,10.78-4.65s3.91-7.61,3.91-13.54V37.35h17.25v71.95
			h-15.77l-0.27-11.72C496.79,106.47,489.55,110.92,478.87,110.92z"/>
		<path class="st1" d="M561.33,110.92c-7.19,0-13.43-1.55-18.73-4.65c-5.3-3.1-9.39-7.48-12.26-13.14
			c-2.88-5.66-4.31-12.26-4.31-19.81c0-7.55,1.44-14.15,4.31-19.81c2.88-5.66,6.94-10.04,12.2-13.14c5.26-3.1,11.38-4.65,18.39-4.65
			c6.82,0,12.8,1.53,17.92,4.58c5.12,3.05,9.09,7.46,11.93,13.21c2.83,5.75,4.24,12.67,4.24,20.75v3.91h-51.07
			c0.27,6.29,1.98,11.03,5.12,14.22c3.14,3.19,7.28,4.78,12.4,4.78c7.82,0,12.8-3.32,14.96-9.97l17.65,1.08
			c-1.98,7.01-5.86,12.53-11.66,16.57C576.62,108.9,569.59,110.92,561.33,110.92z M543.95,66.59h33.28
			c-0.45-5.84-2.14-10.17-5.05-13c-2.92-2.83-6.67-4.24-11.25-4.24c-4.67,0-8.49,1.48-11.45,4.45
			C546.51,56.75,544.66,61.02,543.95,66.59z"/>
		<path class="st1" d="M633.69,110.92c-10.6,0-18.69-2.29-24.25-6.87c-5.57-4.58-8.63-10.38-9.16-17.38l17.65-0.81
			c0.63,3.77,2.2,6.69,4.72,8.76c2.51,2.07,6.24,3.1,11.18,3.1c4.04,0,7.21-0.63,9.5-1.89c2.29-1.26,3.44-3.32,3.44-6.2
			c0-1.62-0.4-2.96-1.21-4.04c-0.81-1.08-2.34-2.02-4.58-2.83c-2.25-0.81-5.57-1.62-9.97-2.43c-7.37-1.26-13.16-2.81-17.38-4.65
			c-4.22-1.84-7.21-4.15-8.96-6.94c-1.75-2.78-2.63-6.24-2.63-10.38c0-6.65,2.58-12.08,7.75-16.3c5.17-4.22,12.74-6.33,22.71-6.33
			c9.7,0,17.11,2.31,22.23,6.94c5.12,4.63,8.13,10.4,9.03,17.32l-17.38,0.81c-0.63-3.68-2.14-6.58-4.52-8.69
			c-2.38-2.11-5.59-3.17-9.63-3.17c-4.04,0-7.1,0.81-9.16,2.43c-2.07,1.62-3.1,3.77-3.1,6.47c0,2.88,1.08,5.01,3.23,6.4
			c2.16,1.39,5.97,2.54,11.45,3.44c7.54,1.17,13.5,2.68,17.85,4.52c4.36,1.84,7.46,4.18,9.3,7.01c1.84,2.83,2.76,6.22,2.76,10.17
			c0,6.92-2.83,12.24-8.49,15.97C650.4,109.06,642.94,110.92,633.69,110.92z"/>
		<path class="st1" d="M700.39,109.3c-7.19,0-12.46-1.64-15.84-4.92c-3.37-3.28-5.05-8.51-5.05-15.7v-38h-11.32V37.35h11.32V20.5
			h17.25v16.84h19v13.34h-19v36.38c0,3.41,0.74,5.75,2.22,7.01c1.48,1.26,3.71,1.89,6.67,1.89h10.11v13.34H700.39z"/>
	</g>
	<g>
		<path class="st1" d="M40.64,111.46c-6.92,0-12.87-1.51-17.85-4.51c-4.99-3.01-8.83-7.19-11.52-12.53
			c-2.69-5.34-4.09-11.43-4.18-18.26l17.65-0.94c0.09,7.01,1.53,12.26,4.31,15.77c2.78,3.5,6.65,5.26,11.59,5.26
			c5.03,0,8.94-1.77,11.72-5.32c2.78-3.55,4.18-8.78,4.18-15.7V13.63h17.52v61.58c0,7.37-1.39,13.77-4.18,19.2
			c-2.78,5.44-6.67,9.63-11.66,12.6C53.24,109.98,47.38,111.46,40.64,111.46z"/>
		<path class="st1" d="M109.09,110.92c-7.54,0-13.61-1.7-18.19-5.12c-4.58-3.41-6.87-8.26-6.87-14.55c0-6.2,1.93-11.05,5.79-14.55
			c3.86-3.5,9.75-6.02,17.65-7.55l23.85-4.72c0-10.24-4.63-15.36-13.88-15.36c-4.13,0-7.41,0.97-9.83,2.9
			c-2.43,1.93-4.04,4.7-4.85,8.29l-17.52-0.81c1.44-7.55,4.94-13.38,10.51-17.52c5.57-4.13,12.8-6.2,21.69-6.2
			c10.24,0,17.99,2.58,23.25,7.75c5.26,5.17,7.88,12.56,7.88,22.17v26.14c0,1.89,0.34,3.19,1.01,3.91c0.67,0.72,1.68,1.08,3.03,1.08
			h2.29v12.53c-1.53,0.36-3.64,0.54-6.33,0.54c-3.86,0-7.14-0.83-9.84-2.49c-2.69-1.66-4.4-4.69-5.12-9.1
			c-1.8,3.77-4.87,6.83-9.23,9.16C120.02,109.75,114.93,110.92,109.09,110.92z M112.59,98.39c5.75,0,10.31-1.66,13.68-4.99
			c3.37-3.32,5.05-7.72,5.05-13.2v-4.04l-18.6,3.77c-3.86,0.81-6.62,2-8.28,3.57c-1.66,1.57-2.49,3.62-2.49,6.13
			C101.95,95.47,105.49,98.39,112.59,98.39z"/>
		<path class="st1" d="M186.84,110.92c-6.11,0-11.39-1.53-15.83-4.58c-4.45-3.05-7.88-7.39-10.31-13
			c-2.42-5.61-3.64-12.28-3.64-20.01c0-7.63,1.23-14.28,3.71-19.94c2.47-5.66,5.93-10.02,10.38-13.07c4.45-3.05,9.68-4.58,15.7-4.58
			c5.03,0,9.45,1.03,13.27,3.1c3.82,2.07,6.72,4.99,8.69,8.76V13.63h17.25v95.67h-16.44l-0.4-10.65c-1.98,3.86-4.94,6.87-8.89,9.03
			C196.36,109.84,191.86,110.92,186.84,110.92z M192.09,96.91c5.3,0,9.41-2.04,12.33-6.13c2.92-4.09,4.38-9.9,4.38-17.45
			c0-7.63-1.44-13.47-4.31-17.52c-2.88-4.04-7.01-6.06-12.4-6.06c-5.21,0-9.37,2.09-12.46,6.27s-4.65,9.95-4.65,17.32
			c0,7.19,1.55,12.91,4.65,17.18C182.73,94.77,186.88,96.91,192.09,96.91z"/>
		<path class="st1" d="M270.65,110.92c-7.19,0-13.43-1.55-18.73-4.65c-5.3-3.1-9.39-7.48-12.26-13.14
			c-2.88-5.66-4.31-12.26-4.31-19.81c0-7.55,1.44-14.15,4.31-19.81c2.88-5.66,6.94-10.04,12.2-13.14c5.26-3.1,11.38-4.65,18.39-4.65
			c6.82,0,12.8,1.53,17.92,4.58c5.12,3.05,9.09,7.46,11.93,13.21c2.83,5.75,4.24,12.67,4.24,20.75v3.91h-51.07
			c0.27,6.29,1.98,11.03,5.12,14.22c3.14,3.19,7.28,4.78,12.4,4.78c7.82,0,12.8-3.32,14.96-9.97l17.65,1.08
			c-1.98,7.01-5.86,12.53-11.66,16.57C285.94,108.9,278.91,110.92,270.65,110.92z M253.26,66.59h33.28
			c-0.45-5.84-2.14-10.17-5.05-13c-2.92-2.83-6.67-4.24-11.25-4.24c-4.67,0-8.49,1.48-11.45,4.45
			C255.82,56.75,253.98,61.02,253.26,66.59z"/>
	</g>

</g>
</svg>
